<svg xmlns="http://www.w3.org/2000/svg" width="27" height="27" viewBox="0 0 27 27" fill="none">
  <path d="M13.5442 5.38356C14.2818 5.35875 14.8593 4.75407 14.8338 4.03296C14.8085 3.31185 14.19 2.74738 13.4523 2.77219L13.5442 5.38356ZM5.40534 12.737L4.06952 12.7771C4.07 12.7924 4.07075 12.8078 4.07178 12.8231L5.40534 12.737ZM3.12413 18.6892L3.9966 19.6788C4.02049 19.6588 4.04366 19.6379 4.06604 19.6161L3.12413 18.6892ZM2.3423 19.3215L3.12736 20.3789C3.14942 20.3632 3.17098 20.3469 3.19203 20.33L2.3423 19.3215ZM10.0234 23.5161C10.7615 23.5161 11.3599 22.9312 11.3599 22.2097C11.3599 21.4882 10.7615 20.9032 10.0234 20.9032V23.5161ZM13.5442 2.77219C12.8065 2.74738 12.188 3.31185 12.1625 4.03296C12.1372 4.75407 12.7145 5.35875 13.4523 5.38356L13.5442 2.77219ZM21.591 12.737L22.9246 12.8229C22.9257 12.8076 22.9264 12.7924 22.9269 12.7771L21.591 12.737ZM23.8723 18.6875L22.9303 19.6144C22.9528 19.636 22.9759 19.657 22.9998 19.6771L23.8723 18.6875ZM24.6542 19.3198L23.8044 20.3282C23.825 20.3448 23.8461 20.3608 23.8676 20.3761L24.6542 19.3198ZM16.973 20.9032C16.235 20.9032 15.6366 21.4882 15.6366 22.2097C15.6366 22.9312 16.235 23.5161 16.973 23.5161V20.9032ZM12.1618 4.07787C12.1618 4.7994 12.7601 5.38432 13.4982 5.38432C14.2363 5.38432 14.8347 4.7994 14.8347 4.07787H12.1618ZM14.8347 1.30645C14.8347 0.584925 14.2363 0 13.4982 0C12.7601 0 12.1618 0.584925 12.1618 1.30645H14.8347ZM10.0234 20.9032C9.28527 20.9032 8.68691 21.4882 8.68691 22.2097C8.68691 22.9312 9.28527 23.5161 10.0234 23.5161V20.9032ZM16.973 23.5161C17.7111 23.5161 18.3095 22.9312 18.3095 22.2097C18.3095 21.4882 17.7111 20.9032 16.973 20.9032V23.5161ZM11.3599 22.2097C11.3599 21.4882 10.7615 20.9032 10.0234 20.9032C9.28527 20.9032 8.68691 21.4882 8.68691 22.2097H11.3599ZM18.3095 22.2097C18.3095 21.4882 17.7111 20.9032 16.973 20.9032C16.235 20.9032 15.6366 21.4882 15.6366 22.2097H18.3095ZM13.4523 2.77219C8.06746 2.95324 3.90255 7.45899 4.06952 12.7771L6.74119 12.697C6.61743 8.75519 9.69371 5.51302 13.5442 5.38356L13.4523 2.77219ZM4.07178 12.8231C4.19693 14.6755 3.50086 16.4818 2.18223 17.7623L4.06604 19.6161C5.94132 17.7949 6.91427 15.2465 6.73891 12.651L4.07178 12.8231ZM2.25167 17.6996C1.97245 17.9348 1.73777 18.1158 1.49255 18.3131L3.19203 20.33C3.38811 20.172 3.68855 19.9384 3.9966 19.6788L2.25167 17.6996ZM1.55724 18.2642C1.16653 18.5415 0.81149 18.9376 0.546834 19.3559C0.285456 19.7687 0.0353762 20.3246 0.00333659 20.9395C-0.0317145 21.612 0.205285 22.36 0.909355 22.8862C1.53924 23.3573 2.36926 23.5161 3.24748 23.5161V20.9032C2.95643 20.9032 2.76391 20.8754 2.6458 20.8459C2.52869 20.8168 2.50786 20.7919 2.53309 20.8107C2.56577 20.8353 2.61423 20.8872 2.64618 20.9619C2.67519 21.03 2.67269 21.0746 2.67282 21.0725C2.67307 21.0675 2.67661 21.0309 2.70206 20.9623C2.72692 20.8952 2.76608 20.8156 2.81983 20.7308C2.87327 20.6463 2.93405 20.5677 2.99426 20.5022C3.05619 20.4346 3.10432 20.3951 3.12736 20.3789L1.55724 18.2642ZM3.24748 23.5161H10.0234V20.9032H3.24748V23.5161ZM13.4523 5.38356C17.3027 5.51302 20.3789 8.75519 20.2552 12.697L22.9269 12.7771C23.0939 7.45899 18.9289 2.95324 13.5442 2.77219L13.4523 5.38356ZM20.2576 12.6512C20.0827 15.2461 21.0557 17.7937 22.9303 19.6144L24.8142 17.7606C23.4959 16.4805 22.7999 14.6748 22.9246 12.8229L20.2576 12.6512ZM22.9998 19.6771C23.3079 19.9366 23.6084 20.1702 23.8044 20.3282L25.5038 18.3114C25.2586 18.114 25.0239 17.9331 24.7447 17.6979L22.9998 19.6771ZM23.8676 20.3761C23.8915 20.393 23.9403 20.4333 24.0027 20.5014C24.0635 20.5676 24.1248 20.6465 24.1788 20.7315C24.2329 20.8168 24.2725 20.8968 24.2976 20.9642C24.3233 21.0332 24.327 21.0699 24.3272 21.0748C24.3274 21.0769 24.3247 21.0318 24.3539 20.9632C24.386 20.8876 24.435 20.8353 24.468 20.8106C24.4933 20.7916 24.4724 20.8165 24.3548 20.8457C24.2361 20.8754 24.0428 20.9032 23.7507 20.9032V23.5161C24.6298 23.5161 25.4609 23.3574 26.0912 22.8864C26.7966 22.3593 27.0329 21.6099 26.9964 20.9368C26.9631 20.3216 26.7116 19.7661 26.4499 19.3536C26.1847 18.9359 25.8297 18.5405 25.4406 18.2635L23.8676 20.3761ZM23.7507 20.9032H16.973V23.5161H23.7507V20.9032ZM14.8347 4.07787V1.30645H12.1618V4.07787H14.8347ZM10.0234 23.5161H16.973V20.9032H10.0234V23.5161ZM8.68691 22.2097C8.68691 24.824 10.8093 27 13.4982 27V24.3871C12.3489 24.3871 11.3599 23.4437 11.3599 22.2097H8.68691ZM13.4982 27C16.187 27 18.3095 24.824 18.3095 22.2097H15.6366C15.6366 23.4437 14.6474 24.3871 13.4982 24.3871V27Z" fill="white"/>
</svg>