<svg xmlns="http://www.w3.org/2000/svg" width="34" height="34" viewBox="0 0 34 34" fill="none">
  <path d="M17.0002 8.50065C17.7826 8.50065 18.4168 9.13491 18.4168 9.91732V19.834C18.4168 20.6164 17.7826 21.2507 17.0002 21.2507C16.2178 21.2507 15.5835 20.6164 15.5835 19.834V9.91732C15.5835 9.13491 16.2178 8.50065 17.0002 8.50065Z" fill="#E7E7E7"/>
  <path d="M15.2293 23.7298C15.2293 24.7078 16.0222 25.5007 17.0002 25.5007C17.9782 25.5007 18.771 24.7078 18.771 23.7298C18.771 22.7518 17.9782 21.959 17.0002 21.959C16.0222 21.959 15.2293 22.7518 15.2293 23.7298Z" fill="#E7E7E7"/>
  <path fill-rule="evenodd" clip-rule="evenodd" d="M2.8335 17.0007C2.8335 9.17662 9.17613 2.83398 17.0002 2.83398C24.8242 2.83398 31.1668 9.17662 31.1668 17.0007C31.1668 24.8247 24.8242 31.1673 17.0002 31.1673C9.17613 31.1673 2.8335 24.8247 2.8335 17.0007ZM17.0002 5.66732C10.7409 5.66732 5.66683 10.7414 5.66683 17.0007C5.66683 23.2599 10.7409 28.334 17.0002 28.334C23.2594 28.334 28.3335 23.2599 28.3335 17.0007C28.3335 10.7414 23.2594 5.66732 17.0002 5.66732Z" fill="#E7E7E7"/>
</svg>