<svg width="188" height="34" viewBox="0 0 188 34" fill="none" xmlns="http://www.w3.org/2000/svg">
<g id="CineVerse Logo 1" clip-path="url(#clip0_762_214)">
<g id="Layer 2">
<g id="Layer 1">
<path id="Vector" d="M15.8359 33.3159C10.8389 33.7789 7.03889 32.8214 4.42018 30.3015C1.80147 27.7816 0.499953 23.894 0.499953 18.7332C0.462324 16.3754 0.868464 14.0317 1.69693 11.8259C2.42678 9.90013 3.54638 8.14808 4.98469 6.68091C6.39603 5.27765 8.09406 4.20055 9.96076 3.52448C11.9723 2.7954 14.0952 2.42684 16.2331 2.43551C17.4228 2.42184 18.6115 2.50629 19.7875 2.68802C20.732 2.83819 21.6674 3.04193 22.5891 3.29827C23.2714 3.48666 23.9388 3.72581 24.5858 4.01373C25.1085 4.25572 25.5005 4.4451 25.741 4.58188C24.936 6.68617 24.5336 7.73831 23.7338 9.87416C22.6677 9.38406 21.5559 9.00166 20.4147 8.73259C19.01 8.4077 17.569 8.26975 16.1286 8.32225C15.0585 8.34782 13.9996 8.54677 12.9924 8.91145C11.9729 9.28283 11.048 9.8776 10.2848 10.6527C9.44814 11.5247 8.80341 12.5644 8.39267 13.704C7.88802 15.1442 7.64716 16.6646 7.68181 18.1914C7.66858 19.5076 7.82674 20.8199 8.15223 22.0948C8.41942 23.2019 8.9343 24.2329 9.6576 25.1092C10.3919 25.9508 11.33 26.587 12.3808 26.9557C13.6953 27.3914 15.087 27.5403 16.4631 27.3923C17.373 27.333 18.2777 27.2099 19.1707 27.0241C19.89 26.8852 20.6017 26.7097 21.3033 26.498C21.8645 26.3247 22.4129 26.112 22.9445 25.8615L24.2356 25.2354C24.9935 27.2713 25.3751 28.2867 26.133 30.312C24.8297 31.0638 23.4439 31.6605 22.0037 32.0902C20.0008 32.7338 17.9315 33.1451 15.8359 33.3159Z" fill="#0C8CE9"/>
<path id="Vector_2" d="M35.8604 3.57714C35.8784 4.07758 35.7812 4.57544 35.5762 5.03176C35.3713 5.48808 35.0642 5.89048 34.6791 6.2075C33.8958 6.85645 32.9129 7.21159 31.8983 7.21229C30.8959 7.25732 29.9108 6.93803 29.1228 6.31271C28.7374 5.99653 28.4308 5.59399 28.2275 5.13728C28.0242 4.68056 27.9298 4.18231 27.952 3.68235C27.929 3.17515 28.0238 2.66954 28.2289 2.20564C28.4339 1.74174 28.7436 1.33234 29.1333 1.00991C29.9257 0.386207 30.9028 0.0473633 31.9088 0.0473633C32.9148 0.0473633 33.8918 0.386207 34.6843 1.00991C35.0636 1.31772 35.3671 1.70958 35.5711 2.1549C35.7751 2.60022 35.8741 3.08696 35.8604 3.57714ZM35.1913 31.1749C32.5413 31.3537 31.2188 31.4537 28.574 31.6536L28.6053 9.9163C31.2554 9.85317 32.5778 9.82161 35.2279 9.769C35.214 16.9025 35.2018 24.0378 35.1913 31.1749Z" fill="#0C8CE9"/>
<path id="Vector_3" d="M39.8904 10.3951C43.1343 9.53857 46.4684 9.07585 49.8216 9.01679C51.4956 8.94939 53.1693 9.15728 54.7768 9.63229C55.9625 9.99102 57.0405 10.642 57.913 11.5261C58.6915 12.3557 59.2583 13.363 59.5647 14.4616C59.9029 15.7002 60.0648 16.9808 60.0456 18.2651V29.8387C57.3955 29.9439 56.0678 30.0018 53.4178 30.128C53.4178 25.7406 53.4178 23.5469 53.4178 19.1542C53.4178 17.2708 53.139 15.9416 52.5815 15.1666C52.0169 14.3932 50.9663 14.0197 49.4453 14.0566C48.9749 14.0566 48.4678 14.0986 47.9347 14.1512C47.4015 14.2039 46.9259 14.267 46.513 14.3301L46.4973 30.4752C43.8472 30.6225 42.5248 30.7015 39.8747 30.8698C39.8712 24.0484 39.8764 17.2235 39.8904 10.3951Z" fill="#0C8CE9"/>
<path id="Vector_4" d="M63.3856 19.6642C63.3504 18.0233 63.679 16.3951 64.3474 14.898C64.9446 13.5902 65.8083 12.4234 66.8825 11.4733C67.9312 10.5541 69.1471 9.8484 70.4629 9.3953C71.7987 8.92402 73.2029 8.6787 74.6184 8.66932C77.9392 8.64828 80.5614 9.50578 82.485 11.2418C84.4085 12.9778 85.3633 15.5433 85.3493 18.9382C85.3493 19.2697 85.3493 19.6327 85.3075 20.0272C85.2657 20.4218 85.2448 20.769 85.2187 21.0794C80.2043 21.1144 75.1933 21.1828 70.1859 21.2845C70.2646 21.8632 70.4804 22.4143 70.8152 22.8913C71.15 23.3683 71.5939 23.7573 72.1094 24.0253C73.5066 24.7544 75.0764 25.0821 76.6464 24.9723C77.8471 24.9543 79.0443 24.84 80.2269 24.6303C81.2041 24.4749 82.1647 24.2284 83.0965 23.8938L83.9851 28.5022C83.52 28.6907 83.0434 28.8489 82.5581 28.9757C81.9623 29.1335 81.3037 29.2808 80.5771 29.4071C79.8506 29.5333 79.0717 29.6385 78.2407 29.7332C77.4096 29.8279 76.5837 29.8805 75.7526 29.8963C73.8971 29.9774 72.041 29.7499 70.2591 29.2229C68.8361 28.8054 67.5176 28.0881 66.3911 27.1187C65.3806 26.2278 64.6034 25.1004 64.1278 23.836C63.6241 22.5041 63.3724 21.0892 63.3856 19.6642ZM78.9463 17.2127C78.9188 16.7295 78.8219 16.2529 78.6588 15.7976C78.4983 15.3424 78.2415 14.9278 77.9061 14.5824C77.5364 14.2107 77.0978 13.9158 76.6151 13.7143C76.0003 13.4701 75.3414 13.359 74.6811 13.3882C74.0287 13.3775 73.3806 13.4954 72.7732 13.7354C72.2729 13.9344 71.8177 14.2332 71.4351 14.6139C71.0823 14.9768 70.8035 15.4057 70.6145 15.8765C70.4242 16.3446 70.2823 16.8311 70.1911 17.3285C73.6775 17.2706 75.4442 17.2496 78.9463 17.2127Z" fill="#0C8CE9"/>
<path id="Vector_5" d="M89.625 2.78271C90.5066 5.04132 91.3656 7.17892 92.2019 9.19553C93.0382 11.2121 93.8571 13.1656 94.6586 15.056C95.4636 16.9463 96.2772 18.8016 97.0996 20.6218C97.9202 22.4367 98.8193 24.278 99.781 26.1403C100.701 24.3201 101.581 22.5034 102.421 20.6902C103.26 18.877 104.09 17.0252 104.909 15.1349C105.724 13.2445 106.543 11.2858 107.365 9.25866C108.188 7.23153 109.041 5.07639 109.927 2.79324H113.131C111.775 6.15659 110.556 9.09207 109.472 11.5997C108.388 14.1073 107.379 16.3869 106.445 18.4386C105.508 20.4552 104.621 22.3193 103.785 24.0307C102.949 25.7422 102.067 27.4642 101.14 29.1968H98.3018C97.3958 27.4432 96.5142 25.7037 95.657 23.9781C94.7997 22.2526 93.8972 20.3833 92.9494 18.3702C92.0016 16.3431 90.9875 14.074 89.9073 11.5628C88.8271 9.05173 87.6074 6.13204 86.2484 2.80376L89.625 2.78271Z" fill="#0C8CE9"/>
<path id="Vector_6" d="M112.922 19.4643C112.885 17.9082 113.179 16.3622 113.784 14.9295C114.315 13.7139 115.085 12.6188 116.047 11.71C116.97 10.8556 118.06 10.2035 119.246 9.79508C120.441 9.38573 121.695 9.18296 122.957 9.19536C125.769 9.22693 128.017 10.0529 129.695 11.6942C131.373 13.3355 132.22 15.8291 132.22 19.2012C132.22 19.4117 132.22 19.6168 132.193 19.8273C132.167 20.0377 132.157 20.2323 132.131 20.4112C126.75 20.2499 121.37 20.1219 115.99 20.0272C116.084 22.4646 116.781 24.3515 118.081 25.6877C119.38 27.0239 121.457 27.7411 124.311 27.8393C125.563 27.9174 126.819 27.8307 128.048 27.5816C128.725 27.4258 129.392 27.229 130.045 26.9924L130.568 29.2019C129.81 29.4897 129.028 29.7063 128.231 29.8489C126.907 30.0978 125.558 30.1896 124.212 30.1225C122.451 30.0976 120.706 29.7812 119.048 29.1861C117.731 28.6986 116.533 27.9326 115.535 26.9398C114.618 26.0038 113.931 24.8654 113.528 23.615C113.107 22.2727 112.903 20.8715 112.922 19.4643ZM129.24 18.2017C129.17 16.0974 128.604 14.4491 127.541 13.2566C126.479 12.0642 124.966 11.4592 123.004 11.4417C122.053 11.4195 121.107 11.5987 120.229 11.9678C119.437 12.3045 118.714 12.7861 118.096 13.3882C117.491 13.9801 117.008 14.6862 116.675 15.4661C116.334 16.2565 116.133 17.1001 116.079 17.9597C121.342 17.9965 123.977 18.0491 129.24 18.1807V18.2017Z" fill="#0C8CE9"/>
<path id="Vector_7" d="M144.911 9.56903C145.811 9.58297 146.71 9.6674 147.597 9.82154C148.196 9.90889 148.784 10.0569 149.354 10.2634L148.779 12.5098C148.313 12.3302 147.829 12.2032 147.336 12.131C146.389 11.9734 145.431 11.8907 144.472 11.8837C143.468 11.8366 142.463 11.8948 141.471 12.0573C140.965 12.1351 140.467 12.2565 139.982 12.4203L140.013 30.3962L137.122 30.2436L137.091 10.779C138.093 10.4331 139.116 10.1537 140.154 9.94254C141.721 9.64111 143.316 9.51584 144.911 9.56903Z" fill="#0C8CE9"/>
<path id="Vector_8" d="M156.891 29.5758C158.279 29.7238 159.682 29.5603 160.999 29.0971C161.502 28.9193 161.933 28.5798 162.225 28.131C162.517 27.6821 162.654 27.149 162.614 26.614C162.625 26.0921 162.525 25.5738 162.322 25.0937C162.101 24.6308 161.775 24.227 161.37 23.9153C160.826 23.4992 160.237 23.1463 159.614 22.8631C158.888 22.5212 157.988 22.1108 156.922 21.6479C156.065 21.2744 155.25 20.9061 154.481 20.5274C153.754 20.1805 153.066 19.7536 152.432 19.2543C151.865 18.798 151.391 18.2352 151.037 17.5971C150.669 16.8926 150.489 16.1042 150.514 15.3087C150.495 14.5066 150.677 13.7126 151.042 12.9994C151.408 12.2862 151.945 11.6766 152.605 11.2264C154.011 10.2058 155.945 9.71133 158.401 9.7692C159.711 9.7717 161.017 9.92884 162.29 10.2374C163.028 10.4153 163.749 10.6582 164.444 10.9634L163.78 13.3675C163.184 13.088 162.573 12.8404 161.951 12.6258C160.746 12.2665 159.495 12.0892 158.239 12.0997C157.623 12.0779 157.006 12.122 156.399 12.2312C155.864 12.3232 155.347 12.5008 154.868 12.7573C154.451 12.9889 154.093 13.3148 153.823 13.7095C153.545 14.1349 153.406 14.637 153.425 15.1456C153.413 15.663 153.535 16.1746 153.781 16.6292C154.046 17.075 154.402 17.4588 154.826 17.755C155.358 18.1268 155.925 18.444 156.52 18.7019C157.184 19.007 157.952 19.349 158.809 19.7067C159.666 20.0644 160.544 20.459 161.36 20.843C162.133 21.2043 162.859 21.6621 163.519 22.2055C164.134 22.7192 164.646 23.3458 165.029 24.052C165.441 24.8651 165.641 25.7703 165.609 26.6824C165.609 28.6464 164.834 30.0685 163.283 30.9488C161.715 31.8274 159.625 32.1535 156.917 31.9536C155.349 31.8841 153.797 31.6154 152.296 31.154C151.571 30.9087 150.859 30.6242 150.164 30.3018C150.467 29.3706 150.613 28.8972 150.916 27.9608C151.005 28.0186 151.199 28.1186 151.491 28.2606C151.784 28.4027 152.192 28.5605 152.694 28.7393C153.282 28.9498 153.883 29.1255 154.492 29.2654C155.283 29.4264 156.085 29.5301 156.891 29.5758Z" fill="#0C8CE9"/>
<path id="Vector_9" d="M168.244 21.4265C168.202 19.7284 168.496 18.0387 169.106 16.4552C169.619 15.149 170.387 13.9595 171.364 12.9568C172.266 12.0431 173.356 11.3408 174.558 10.8998C175.744 10.4647 177.002 10.2611 178.264 10.3001C181.076 10.3896 183.318 11.3523 184.991 13.2672C186.664 15.1821 187.5 18.0649 187.5 21.9105C187.5 22.1473 187.5 22.3892 187.5 22.626C187.5 22.8627 187.463 23.0837 187.432 23.2888C182.069 22.889 176.701 22.526 171.328 22.1999C171.422 24.9039 172.117 27.0239 173.419 28.5864C174.72 30.1488 176.79 31.0694 179.628 31.3325C180.866 31.4908 182.12 31.4625 183.35 31.2483C184.028 31.1102 184.696 30.922 185.346 30.6854C185.556 31.7007 185.665 32.211 185.869 33.2316C185.119 33.5181 184.338 33.7176 183.543 33.826C182.216 34.034 180.868 34.0588 179.534 33.8997C177.753 33.7541 176.012 33.2929 174.391 32.5372C173.053 31.8903 171.863 30.9693 170.899 29.8332C169.976 28.7296 169.293 27.4426 168.897 26.056C168.464 24.5514 168.244 22.9929 168.244 21.4265ZM184.526 20.6427C184.468 18.2491 183.904 16.3552 182.843 14.9822C182.3 14.2995 181.61 13.7505 180.824 13.3767C180.039 13.003 179.18 12.8144 178.311 12.8253C177.36 12.7686 176.408 12.9399 175.535 13.325C174.734 13.6895 174.012 14.2077 173.408 14.8506C172.796 15.5085 172.316 16.2781 171.992 17.118C171.659 17.9973 171.466 18.9242 171.422 19.8641C176.649 20.1482 179.262 20.306 184.526 20.6427Z" fill="#0C8CE9"/>
</g>
</g>
</g>
<defs>
<clipPath id="clip0_762_214">
<rect width="187" height="34" fill="white" transform="translate(0.5)"/>
</clipPath>
</defs>
</svg>
