<svg width="25" height="24" viewBox="0 0 25 24" fill="none" xmlns="http://www.w3.org/2000/svg">
<g id="Icon" clip-path="url(#clip0_731_208)">
<path id="Vector" d="M24.6665 12C24.6665 5.37258 19.2939 0 12.6665 0C6.03908 0 0.666504 5.37258 0.666504 12C0.666504 17.9895 5.05471 22.954 10.7915 23.8542V15.4687H7.74463V12H10.7915V9.35625C10.7915 6.34875 12.5831 4.6875 15.3241 4.6875C16.6366 4.6875 18.0103 4.92187 18.0103 4.92187V7.875H16.4971C15.0065 7.875 14.5415 8.80008 14.5415 9.75V12H17.8696L17.3376 15.4687H14.5415V23.8542C20.2783 22.954 24.6665 17.9895 24.6665 12Z" fill="white"/>
</g>
<defs>
<clipPath id="clip0_731_208">
<rect width="24" height="24" fill="white" transform="translate(0.666504)"/>
</clipPath>
</defs>
</svg>
