<svg xmlns="http://www.w3.org/2000/svg" width="35" height="35" viewBox="0 0 35 35" fill="none">
<path fill-rule="evenodd" clip-rule="evenodd" d="M16.0415 2.91602C8.79277 2.91602 2.9165 8.79228 2.9165 16.041C2.9165 23.2898 8.79277 29.166 16.0415 29.166C19.1405 29.166 21.9886 28.092 24.234 26.2959L29.5936 31.6555C30.1632 32.2251 31.0865 32.2251 31.656 31.6555C32.2255 31.086 32.2255 30.1627 31.656 29.5931L26.2964 24.2335C28.0925 21.9881 29.1665 19.14 29.1665 16.041C29.1665 8.79228 23.2902 2.91602 16.0415 2.91602ZM5.83317 16.041C5.83317 10.4031 10.4036 5.83268 16.0415 5.83268C21.6794 5.83268 26.2498 10.4031 26.2498 16.041C26.2498 21.6789 21.6794 26.2493 16.0415 26.2493C10.4036 26.2493 5.83317 21.6789 5.83317 16.041Z" fill="white"/>
</svg>