<svg width="25" height="24" viewBox="0 0 25 24" fill="none" xmlns="http://www.w3.org/2000/svg">
<g id="Icon" clip-path="url(#clip0_731_216)">
<path id="Vector" d="M22.8892 0H2.43765C1.45796 0 0.665771 0.773438 0.665771 1.72969V22.2656C0.665771 23.2219 1.45796 24 2.43765 24H22.8892C23.8689 24 24.6658 23.2219 24.6658 22.2703V1.72969C24.6658 0.773438 23.8689 0 22.8892 0ZM7.78608 20.4516H4.22358V8.99531H7.78608V20.4516ZM6.00483 7.43438C4.86108 7.43438 3.93765 6.51094 3.93765 5.37187C3.93765 4.23281 4.86108 3.30937 6.00483 3.30937C7.1439 3.30937 8.06733 4.23281 8.06733 5.37187C8.06733 6.50625 7.1439 7.43438 6.00483 7.43438ZM21.1173 20.4516H17.5595V14.8828C17.5595 13.5562 17.5361 11.8453 15.708 11.8453C13.8564 11.8453 13.5751 13.2937 13.5751 14.7891V20.4516H10.022V8.99531H13.4345V10.5609H13.4814C13.9548 9.66094 15.1173 8.70938 16.847 8.70938C20.4517 8.70938 21.1173 11.0813 21.1173 14.1656V20.4516Z" fill="white"/>
</g>
<defs>
<clipPath id="clip0_731_216">
<rect width="24" height="24" fill="white" transform="translate(0.665771)"/>
</clipPath>
</defs>
</svg>
