<svg width="33" height="45" viewBox="0 0 33 45" fill="none" xmlns="http://www.w3.org/2000/svg">
<path d="M1.44411 0.360497C2.19338 0.0250308 3.06258 0.185911 3.65479 0.769651L3.66017 0.774944L3.68168 0.795999L3.7708 0.882631C3.84985 0.95913 3.96675 1.07148 4.11444 1.21122C4.41032 1.49118 4.82715 1.87861 5.30886 2.30656C6.29644 3.18394 7.4675 4.15131 8.40982 4.74309C11.4869 6.6755 16.3402 7.22952 20.7591 7.19583C22.9084 7.17945 24.8465 7.02661 26.2478 6.87744C26.9471 6.803 27.5094 6.72983 27.8934 6.67584C28.0854 6.64885 28.2326 6.62669 28.3299 6.61159L28.4377 6.59454L28.4622 6.59053L28.4665 6.58982C29.1848 6.46911 29.9111 6.75526 30.3721 7.34115C30.8332 7.9272 30.9598 8.72442 30.7042 9.43369L27.9957 16.9511L32.5656 24.5613C32.9218 25.1546 32.9747 25.8923 32.7069 26.534C32.4391 27.1758 31.8851 27.6392 31.2253 27.7732C20.4695 29.9582 13.9652 28.4494 4.29256 25.772V42.6875C4.29256 43.8612 3.37848 44.8125 2.2509 44.8125C1.12331 44.8125 0.209229 43.8612 0.209229 42.6875V2.31255C0.209229 1.46353 0.694779 0.695993 1.44411 0.360497ZM20.789 11.4457C22.6398 11.4316 24.3373 11.3237 25.707 11.1996L23.8184 16.4414C23.5953 17.0607 23.6619 17.7529 23.9987 18.3138L27.4866 24.1221C19.0491 25.3599 13.4402 23.917 4.29256 21.3732V6.92533C4.95118 7.45408 5.64488 7.97041 6.3003 8.38201C10.4238 10.9715 16.2893 11.48 20.789 11.4457Z" fill="white"/>
<path d="M1.44411 0.360497C2.19338 0.0250308 3.06258 0.185911 3.65479 0.769651L3.66017 0.774944L3.68168 0.795999L3.7708 0.882631C3.84985 0.95913 3.96675 1.07148 4.11444 1.21122C4.41032 1.49118 4.82715 1.87861 5.30886 2.30656C6.29644 3.18394 7.4675 4.15131 8.40982 4.74309C11.4869 6.6755 16.3402 7.22952 20.7591 7.19583C22.9084 7.17945 24.8465 7.02661 26.2478 6.87744C26.9471 6.803 27.5094 6.72983 27.8934 6.67584C28.0854 6.64885 28.2326 6.62669 28.3299 6.61159L28.4377 6.59454L28.4622 6.59053L28.4665 6.58982C29.1848 6.46911 29.9111 6.75526 30.3721 7.34115C30.8332 7.9272 30.9598 8.72442 30.7042 9.43369L27.9957 16.9511L32.5656 24.5613C32.9218 25.1546 32.9747 25.8923 32.7069 26.534C32.4391 27.1758 31.8851 27.6392 31.2253 27.7732C20.4695 29.9582 13.9652 28.4494 4.29256 25.772V42.6875C4.29256 43.8612 3.37848 44.8125 2.2509 44.8125C1.12331 44.8125 0.209229 43.8612 0.209229 42.6875V2.31255C0.209229 1.46353 0.694779 0.695993 1.44411 0.360497ZM20.789 11.4457C22.6398 11.4316 24.3373 11.3237 25.707 11.1996L23.8184 16.4414C23.5953 17.0607 23.6619 17.7529 23.9987 18.3138L27.4866 24.1221C19.0491 25.3599 13.4402 23.917 4.29256 21.3732V6.92533C4.95118 7.45408 5.64488 7.97041 6.3003 8.38201C10.4238 10.9715 16.2893 11.48 20.789 11.4457Z" stroke="black"/>
</svg>
