<svg width="187" height="34" viewBox="0 0 187 34" fill="none" xmlns="http://www.w3.org/2000/svg">
<path d="M15.3359 33.3161C10.3389 33.7791 6.53889 32.8216 3.92018 30.3017C1.30147 27.7818 -4.66709e-05 23.8942 -4.66709e-05 18.7334C-0.0376762 16.3756 0.368464 14.0319 1.19693 11.8261C1.92678 9.90033 3.04638 8.14828 4.48469 6.68111C5.89603 5.27786 7.59406 4.20076 9.46076 3.52468C11.4723 2.79561 13.5952 2.42704 15.7331 2.43572C16.9228 2.42205 18.1115 2.5065 19.2875 2.68823C20.232 2.8384 21.1674 3.04214 22.0891 3.29847C22.7714 3.48687 23.4388 3.72601 24.0858 4.01393C24.6085 4.25592 25.0005 4.44531 25.241 4.58209C24.436 6.68637 24.0336 7.73852 23.2338 9.87437C22.1677 9.38426 21.0559 9.00187 19.9147 8.73279C18.51 8.40791 17.069 8.26995 15.6286 8.32246C14.5585 8.34802 13.4996 8.54697 12.4924 8.91166C11.4729 9.28304 10.548 9.8778 9.78484 10.653C8.94814 11.5249 8.30341 12.5646 7.89267 13.7042C7.38802 15.1444 7.14716 16.6648 7.18181 18.1916C7.16858 19.5078 7.32674 20.8201 7.65223 22.095C7.91942 23.2021 8.4343 24.2331 9.1576 25.1094C9.89188 25.951 10.83 26.5872 11.8808 26.9559C13.1953 27.3916 14.587 27.5405 15.9631 27.3925C16.873 27.3332 17.7777 27.2101 18.6707 27.0243C19.39 26.8855 20.1017 26.7099 20.8033 26.4982C21.3645 26.3249 21.9129 26.1122 22.4445 25.8617L23.7356 25.2357C24.4935 27.2716 24.8751 28.2869 25.633 30.3122C24.3297 31.064 22.9439 31.6607 21.5037 32.0904C19.5008 32.734 17.4315 33.1453 15.3359 33.3161Z" fill="#0C8CE9"/>
<path d="M35.3604 3.57729C35.3784 4.07773 35.2812 4.57559 35.0762 5.03191C34.8713 5.48823 34.5642 5.89064 34.1791 6.20765C33.3958 6.8566 32.4129 7.21175 31.3983 7.21245C30.3959 7.25747 29.4108 6.93818 28.6228 6.31286C28.2374 5.99668 27.9308 5.59415 27.7275 5.13743C27.5242 4.68071 27.4298 4.18247 27.452 3.68251C27.429 3.1753 27.5238 2.66969 27.7289 2.20579C27.9339 1.7419 28.2436 1.33249 28.6333 1.01006C29.4257 0.386359 30.4028 0.0475159 31.4088 0.0475159C32.4148 0.0475159 33.3918 0.386359 34.1843 1.01006C34.5636 1.31787 34.8671 1.70973 35.0711 2.15505C35.2751 2.60037 35.3741 3.08711 35.3604 3.57729ZM34.6913 31.175C32.0413 31.3539 30.7188 31.4538 28.074 31.6537L28.1053 9.91645C30.7554 9.85333 32.0778 9.82176 34.7279 9.76915C34.714 16.9027 34.7018 24.038 34.6913 31.175Z" fill="#0C8CE9"/>
<path d="M39.3904 10.3952C42.6343 9.53866 45.9684 9.07593 49.3216 9.01687C50.9956 8.94947 52.6693 9.15737 54.2768 9.63237C55.4625 9.99111 56.5405 10.6421 57.413 11.5262C58.1915 12.3558 58.7583 13.3631 59.0647 14.4617C59.4029 15.7003 59.5648 16.9809 59.5456 18.2652V29.8388C56.8955 29.944 55.5678 30.0019 52.9178 30.1281C52.9178 25.7407 52.9178 23.547 52.9178 19.1543C52.9178 17.2709 52.639 15.9417 52.0815 15.1666C51.5169 14.3933 50.4663 14.0198 48.9453 14.0566C48.4749 14.0566 47.9678 14.0987 47.4347 14.1513C46.9015 14.2039 46.4259 14.2671 46.013 14.3302L45.9973 30.4753C43.3472 30.6226 42.0248 30.7015 39.3747 30.8699C39.3712 24.0485 39.3764 17.2236 39.3904 10.3952Z" fill="#0C8CE9"/>
<path d="M62.8856 19.6646C62.8504 18.0236 63.179 16.3955 63.8474 14.8984C64.4446 13.5906 65.3083 12.4238 66.3825 11.4736C67.4312 10.5544 68.6471 9.84874 69.9629 9.39565C71.2987 8.92436 72.7029 8.67905 74.1184 8.66967C77.4392 8.64862 80.0614 9.50612 81.985 11.2422C83.9085 12.9782 84.8633 15.5437 84.8493 18.9386C84.8493 19.27 84.8493 19.633 84.8075 20.0276C84.7657 20.4221 84.7448 20.7693 84.7187 21.0797C79.7043 21.1148 74.6933 21.1832 69.6859 21.2849C69.7646 21.8635 69.9804 22.4146 70.3152 22.8916C70.65 23.3687 71.0939 23.7576 71.6094 24.0257C73.0066 24.7548 74.5764 25.0824 76.1464 24.9726C77.3471 24.9547 78.5443 24.8403 79.7269 24.6307C80.7041 24.4753 81.6647 24.2287 82.5965 23.8942L83.4851 28.5026C83.02 28.6911 82.5434 28.8492 82.0581 28.976C81.4623 29.1338 80.8037 29.2811 80.0771 29.4074C79.3506 29.5337 78.5717 29.6389 77.7407 29.7336C76.9096 29.8283 76.0837 29.8809 75.2526 29.8967C73.3971 29.9777 71.541 29.7502 69.7591 29.2233C68.3361 28.8058 67.0176 28.0885 65.8911 27.119C64.8806 26.2281 64.1034 25.1008 63.6278 23.8363C63.1241 22.5045 62.8724 21.0896 62.8856 19.6646ZM78.4463 17.2131C78.4188 16.7299 78.3219 16.2532 78.1588 15.7979C77.9983 15.3428 77.7415 14.9282 77.4061 14.5827C77.0364 14.211 76.5978 13.9161 76.1151 13.7147C75.5003 13.4704 74.8414 13.3593 74.1811 13.3885C73.5287 13.3778 72.8806 13.4958 72.2732 13.7357C71.7729 13.9347 71.3177 14.2336 70.9351 14.6143C70.5823 14.9772 70.3035 15.4061 70.1145 15.8768C69.9242 16.3449 69.7823 16.8315 69.6911 17.3288C73.1775 17.2709 74.9442 17.2499 78.4463 17.2131Z" fill="#0C8CE9"/>
<path d="M89.125 2.78293C90.0066 5.04153 90.8656 7.17913 91.7019 9.19574C92.5382 11.2123 93.3571 13.1658 94.1586 15.0562C94.9636 16.9465 95.7772 18.8018 96.5996 20.622C97.4202 22.437 98.3193 24.2782 99.281 26.1405C100.201 24.3203 101.081 22.5036 101.921 20.6904C102.76 18.8772 103.59 17.0254 104.409 15.1351C105.224 13.2447 106.043 11.286 106.865 9.25887C107.688 7.23174 108.541 5.0766 109.427 2.79345H112.631C111.275 6.1568 110.056 9.09228 108.972 11.5999C107.888 14.1075 106.879 16.3871 105.945 18.4388C105.008 20.4554 104.121 22.3195 103.285 24.031C102.449 25.7424 101.567 27.4645 100.64 29.197H97.8018C96.8958 27.4434 96.0142 25.7039 95.157 23.9784C94.2997 22.2528 93.3972 20.3835 92.4494 18.3704C91.5016 16.3433 90.4875 14.0742 89.4073 11.5631C88.3271 9.05195 87.1074 6.13225 85.7484 2.80397L89.125 2.78293Z" fill="#0C8CE9"/>
<path d="M112.422 19.4647C112.385 17.9086 112.679 16.3626 113.284 14.9299C113.815 13.7143 114.585 12.6192 115.547 11.7104C116.47 10.856 117.56 10.2039 118.746 9.79546C119.941 9.3861 121.195 9.18333 122.457 9.19573C125.269 9.2273 127.517 10.0532 129.195 11.6946C130.873 13.3359 131.72 15.8295 131.72 19.2016C131.72 19.412 131.72 19.6172 131.693 19.8276C131.667 20.0381 131.657 20.2327 131.631 20.4116C126.25 20.2502 120.87 20.1222 115.49 20.0275C115.584 22.465 116.281 24.3519 117.581 25.6881C118.88 27.0243 120.957 27.7415 123.811 27.8397C125.063 27.9177 126.319 27.8311 127.548 27.5819C128.225 27.4262 128.892 27.2294 129.545 26.9927L130.068 29.2022C129.31 29.4901 128.528 29.7067 127.731 29.8493C126.407 30.0982 125.058 30.19 123.712 30.1229C121.951 30.0979 120.206 29.7816 118.548 29.1865C117.231 28.6989 116.033 27.933 115.035 26.9401C114.118 26.0042 113.431 24.8657 113.028 23.6154C112.607 22.2731 112.403 20.8719 112.422 19.4647ZM128.74 18.2021C128.67 16.0978 128.104 14.4494 127.041 13.257C125.979 12.0646 124.466 11.4596 122.504 11.4421C121.553 11.4198 120.607 11.5991 119.729 11.9681C118.937 12.3049 118.214 12.7865 117.596 13.3885C116.991 13.9805 116.508 14.6866 116.175 15.4665C115.834 16.2569 115.633 17.1005 115.579 17.9601C120.842 17.9969 123.477 18.0495 128.74 18.181V18.2021Z" fill="#0C8CE9"/>
<path d="M144.411 9.56925C145.311 9.5832 146.21 9.66762 147.097 9.82176C147.696 9.90911 148.284 10.0572 148.854 10.2637L148.279 12.51C147.813 12.3304 147.329 12.2034 146.836 12.1312C145.889 11.9736 144.931 11.8909 143.972 11.884C142.968 11.8369 141.963 11.895 140.971 12.0576C140.465 12.1353 139.967 12.2568 139.482 12.4206L139.513 30.3964L136.622 30.2439L136.591 10.7792C137.593 10.4334 138.616 10.1539 139.654 9.94276C141.221 9.64133 142.816 9.51606 144.411 9.56925Z" fill="#0C8CE9"/>
<path d="M156.391 29.5757C157.779 29.7238 159.182 29.5603 160.499 29.097C161.002 28.9193 161.433 28.5797 161.725 28.1309C162.017 27.6821 162.154 27.149 162.114 26.614C162.125 26.092 162.025 25.5738 161.822 25.0936C161.601 24.6308 161.275 24.2269 160.87 23.9152C160.326 23.4992 159.737 23.1463 159.114 22.8631C158.388 22.5211 157.488 22.1108 156.422 21.6478C155.565 21.2743 154.75 20.9061 153.981 20.5273C153.254 20.1805 152.566 19.7535 151.932 19.2542C151.365 18.798 150.891 18.2352 150.537 17.5971C150.169 16.8926 149.989 16.1041 150.014 15.3087C149.995 14.5065 150.177 13.7126 150.542 12.9994C150.908 12.2862 151.445 11.6766 152.105 11.2264C153.511 10.2058 155.445 9.71129 157.901 9.76915C159.211 9.77165 160.517 9.92879 161.79 10.2374C162.528 10.4153 163.249 10.6582 163.944 10.9633L163.28 13.3675C162.684 13.088 162.073 12.8404 161.451 12.6257C160.246 12.2664 158.995 12.0891 157.739 12.0996C157.123 12.0779 156.506 12.122 155.899 12.2312C155.364 12.3231 154.847 12.5007 154.368 12.7572C153.951 12.9888 153.593 13.3148 153.323 13.7094C153.045 14.1349 152.906 14.6369 152.925 15.1456C152.913 15.6629 153.035 16.1745 153.281 16.6291C153.546 17.075 153.902 17.4588 154.326 17.7549C154.858 18.1267 155.425 18.444 156.02 18.7018C156.684 19.007 157.452 19.3489 158.309 19.7066C159.166 20.0644 160.044 20.4589 160.86 20.843C161.633 21.2043 162.359 21.662 163.019 22.2055C163.634 22.7191 164.146 23.3457 164.529 24.052C164.941 24.8651 165.141 25.7702 165.109 26.6824C165.109 28.6464 164.334 30.0685 162.783 30.9488C161.215 31.8273 159.125 32.1535 156.417 31.9536C154.849 31.884 153.297 31.6153 151.796 31.154C151.071 30.9087 150.359 30.6242 149.664 30.3017C149.967 29.3706 150.113 28.8971 150.416 27.9607C150.505 28.0186 150.699 28.1185 150.991 28.2606C151.284 28.4026 151.692 28.5604 152.194 28.7393C152.782 28.9497 153.383 29.1254 153.992 29.2654C154.783 29.4263 155.585 29.5301 156.391 29.5757Z" fill="#0C8CE9"/>
<path d="M167.744 21.4269C167.702 19.7287 167.996 18.0391 168.606 16.4555C169.119 15.1494 169.887 13.9599 170.864 12.9571C171.766 12.0435 172.856 11.3411 174.058 10.9002C175.244 10.465 176.502 10.2615 177.764 10.3005C180.576 10.3899 182.818 11.3526 184.491 13.2675C186.164 15.1824 187 18.0653 187 21.9109C187 22.1476 187 22.3896 187 22.6263C187 22.8631 186.963 23.084 186.932 23.2892C181.569 22.8894 176.201 22.5264 170.828 22.2002C170.922 24.9042 171.617 27.0243 172.919 28.5867C174.22 30.1492 176.29 31.0698 179.128 31.3328C180.366 31.4912 181.62 31.4628 182.85 31.2487C183.528 31.1106 184.196 30.9224 184.846 30.6858C185.056 31.7011 185.165 32.2114 185.369 33.2319C184.619 33.5185 183.838 33.718 183.043 33.8264C181.716 34.0344 180.368 34.0592 179.034 33.9001C177.253 33.7545 175.512 33.2932 173.891 32.5375C172.553 31.8906 171.363 30.9697 170.399 29.8335C169.476 28.73 168.793 27.443 168.397 26.0563C167.964 24.5518 167.744 22.9933 167.744 21.4269ZM184.026 20.6431C183.968 18.2494 183.404 16.3556 182.343 14.9825C181.8 14.2999 181.11 13.7509 180.324 13.3771C179.539 13.0033 178.68 12.8147 177.811 12.8256C176.86 12.769 175.908 12.9403 175.035 13.3254C174.234 13.6899 173.512 14.2081 172.908 14.851C172.296 15.5088 171.816 16.2785 171.492 17.1184C171.159 17.9977 170.966 18.9245 170.922 19.8645C176.149 20.1485 178.762 20.3064 184.026 20.6431Z" fill="#0C8CE9"/>
</svg>
