<svg width="38" height="37" viewBox="0 0 38 37" fill="none" xmlns="http://www.w3.org/2000/svg">
<path d="M34.9059 0H2.765C2.14343 0 1.54733 0.349839 1.10781 0.972556C0.668302 1.59527 0.421387 2.43986 0.421387 3.32051V33.6795C0.421387 34.5601 0.668302 35.4047 1.10781 36.0274C1.54733 36.6502 2.14343 37 2.765 37H34.9059C35.5275 37 36.1236 36.6502 36.5631 36.0274C37.0026 35.4047 37.2495 34.5601 37.2495 33.6795V3.32051C37.2495 2.43986 37.0026 1.59527 36.5631 0.972556C36.1236 0.349839 35.5275 0 34.9059 0ZM35.2407 33.6795C35.2407 33.8053 35.2055 33.9259 35.1427 34.0149C35.0799 34.1039 34.9947 34.1538 34.9059 34.1538H2.765C2.6762 34.1538 2.59104 34.1039 2.52826 34.0149C2.46547 33.9259 2.43019 33.8053 2.43019 33.6795V3.32051C2.43019 3.19471 2.46547 3.07405 2.52826 2.98509C2.59104 2.89613 2.6762 2.84615 2.765 2.84615H34.9059C34.9947 2.84615 35.0799 2.89613 35.1427 2.98509C35.2055 3.07405 35.2407 3.19471 35.2407 3.32051V33.6795ZM5.77821 20.3974C5.77821 20.02 5.88403 19.658 6.07239 19.3912C6.26075 19.1243 6.51623 18.9744 6.78261 18.9744H9.46102C9.72741 18.9744 9.98288 19.1243 10.1712 19.3912C10.3596 19.658 10.4654 20.02 10.4654 20.3974C10.4654 20.7749 10.3596 21.1368 10.1712 21.4037C9.98288 21.6706 9.72741 21.8205 9.46102 21.8205H6.78261C6.51623 21.8205 6.26075 21.6706 6.07239 21.4037C5.88403 21.1368 5.77821 20.7749 5.77821 20.3974ZM31.8927 20.3974C31.8927 20.7749 31.7869 21.1368 31.5985 21.4037C31.4102 21.6706 31.1547 21.8205 30.8883 21.8205H14.8178C14.5515 21.8205 14.296 21.6706 14.1076 21.4037C13.9193 21.1368 13.8134 20.7749 13.8134 20.3974C13.8134 20.02 13.9193 19.658 14.1076 19.3912C14.296 19.1243 14.5515 18.9744 14.8178 18.9744H30.8883C31.1547 18.9744 31.4102 19.1243 31.5985 19.3912C31.7869 19.658 31.8927 20.02 31.8927 20.3974ZM23.8575 27.9872C23.8575 28.3646 23.7517 28.7266 23.5633 28.9934C23.3749 29.2603 23.1195 29.4103 22.8531 29.4103H6.78261C6.51623 29.4103 6.26075 29.2603 6.07239 28.9934C5.88403 28.7266 5.77821 28.3646 5.77821 27.9872C5.77821 27.6098 5.88403 27.2478 6.07239 26.9809C6.26075 26.714 6.51623 26.5641 6.78261 26.5641H22.8531C23.1195 26.5641 23.3749 26.714 23.5633 26.9809C23.7517 27.2478 23.8575 27.6098 23.8575 27.9872ZM31.8927 27.9872C31.8927 28.3646 31.7869 28.7266 31.5985 28.9934C31.4102 29.2603 31.1547 29.4103 30.8883 29.4103H28.2099C27.9435 29.4103 27.688 29.2603 27.4997 28.9934C27.3113 28.7266 27.2055 28.3646 27.2055 27.9872C27.2055 27.6098 27.3113 27.2478 27.4997 26.9809C27.688 26.714 27.9435 26.5641 28.2099 26.5641H30.8883C31.1547 26.5641 31.4102 26.714 31.5985 26.9809C31.7869 27.2478 31.8927 27.6098 31.8927 27.9872Z" fill="white"/>
</svg>
